<svg xmlns="http://www.w3.org/2000/svg" width="225.494" height="158.706" viewBox="0 0 225.494 158.706"><g transform="translate(-148.95 -248.376)"><path d="M246.014,407.072l-67.573-39.014L148.95,352.124l105.484-58.59,120.01,52.112-106.25,61.435Z" fill="#d6eaf2"/><path d="M267.291,405.981l-78.68-45.426V342.923l105.551-43.306,78.676,45.425Z" fill="#144682"/><path d="M294.162,293.949,192.524,341.108v16.039l74.767,43.167,105.547-60.941Z" fill="#e5e5e5"/><path d="M294.162,289.851,277.31,297.67v50.5H192.524v4.881l74.767,43.167,105.547-60.94Z" fill="#f4f4f4"/><path d="M294.162,286.093l-16.852,7.819v54.255H192.524v1.124l74.767,43.167,105.547-60.94Z" fill="#fff"/><path d="M267.291,388.348l-78.68-45.425,105.551-60.939,78.676,45.423Z" fill="#2d5ca0"/><path d="M267.541,382.048l-74.753-43.159V322.137L293.07,280.992l74.75,43.157Z" fill="#1890c6"/><path d="M293.07,275.607l-96.566,44.8v15.239l71.037,41.012,100.279-57.9Z" fill="#e5e5e5"/><path d="M293.07,271.713l-16.01,7.429v47.978H196.5v4.637l71.037,41.013,100.279-57.9Z" fill="#f4f4f4"/><path d="M293.07,268.143l-16.01,7.43v51.547H196.5v1.068L267.541,369.2,367.82,311.3Z" fill="#fff"/><path d="M267.541,365.294l-74.753-43.157,100.283-57.9L367.82,307.4Z" fill="#55c3fe"/><path d="M268.1,360.986l-71.455-41.255V303.719l95.857-39.328,71.453,41.252Z" fill="#ea4266"/><path d="M292.506,259.242,200.2,302.07v14.566l67.9,39.2L363.959,300.5Z" fill="#e5e5e5"/><path d="M292.506,255.52l-15.3,7.1v45.86h-77v4.432l67.9,39.2,95.856-55.344Z" fill="#f4f4f4"/><path d="M292.506,252.107l-15.3,7.1v49.272h-77V309.5l67.9,39.2,95.856-55.343Z" fill="#fff"/><path d="M268.1,344.972l-71.455-41.253,95.857-55.343,71.453,41.252Z" fill="#fe7386"/><path d="M196.649,303.719l56.736,32.755,47.336-27.329-56.733-32.757Z" fill="#ef92a9"/><path d="M239.442,279.013l53.064-30.637,38.926,22.473Z" fill="#ef92a9"/></g></svg>