<svg xmlns="http://www.w3.org/2000/svg" width="120.508" height="194.606" viewBox="0 0 120.508 194.606"><g transform="translate(-299.996 -153.434)"><path d="M420.5,327.584l-84.945-49.042-16.42-115.725,16.42-9.383L420.5,202.477Z" fill="#144682"/><path d="M416.275,325.406l-14.25,7.279L319.508,167.055l15.676-8.958,81.092,46.818Z" fill="#fff"/><path d="M404.084,336.968l-84.945-49.043V162.817l84.945,49.043Z" fill="#2d5ca0"/><path d="M401.363,338.656l-84.947-49.042L300,173.89l16.42-9.383,84.947,49.043Z" fill="#1890c6"/><path d="M397.135,336.478l-14.25,7.28L300.367,178.127l15.676-8.958,81.092,46.818Z" fill="#fff"/><path d="M384.941,348.04,300,299V173.89l84.945,49.043Z" fill="#55c3fe"/><path d="M300,299V173.89l84.945,49.043Z" fill="#c4dde8"/><path d="M321.674,179.239l-7.225-4.082V159.784l3.611,5.129,3.613-2.377Z" fill="#ea4266"/></g></svg>