<svg height="512" viewBox="0 0 64 64" width="512" xmlns="http://www.w3.org/2000/svg"><path d="m43.692 16.005a10.064 10.064 0 0 0 -9.692 10.031 9.94 9.94 0 0 0 5 8.615v4.349a2 2 0 0 0 2 2v1a2 2 0 0 0 2 2h2a2 2 0 0 0 2-2v-1a2 2 0 0 0 2-2v-4.349a10 10 0 0 0 -5.308-18.646zm1.308 25.995h-2v-1h2zm-4-3v-1h6v1zm6.554-5.842a1 1 0 0 0 -.554.895v1.947h-2v-7h1a3 3 0 0 0 0-6v2a1 1 0 0 1 0 2h-4a1 1 0 0 1 0-2v-2a3 3 0 0 0 0 6h1v7h-2v-1.947a1 1 0 0 0 -.555-.895 7.96 7.96 0 0 1 -4.445-7.129 8.05 8.05 0 0 1 7.752-8.029h.25a7.994 7.994 0 0 1 3.552 15.158z"/><path d="m55 2h-48a5.006 5.006 0 0 0 -5 5v45a5.006 5.006 0 0 0 5 5h17v2a3 3 0 0 0 6 0v-2h25a5.006 5.006 0 0 0 5-5v-45a5.006 5.006 0 0 0 -5-5zm-48 2h48a3 3 0 0 1 3 3v3h-54v-3a3 3 0 0 1 3-3zm18.618 51-1.584-3.168a.988.988 0 0 1 .966-.832 1 1 0 0 1 1 1 1 1 0 0 0 2 0 1 1 0 0 1 1-1 .988.988 0 0 1 .966.832l-1.584 3.168zm4.382-30h-6v-1h6zm-6 2h6v22.184a2.846 2.846 0 0 0 -2 0v-20.184h-2v20.179a2.846 2.846 0 0 0 -2 0zm6-5h-6v-1a3 3 0 0 1 6 0zm-3 38a1 1 0 0 1 -1-1v-2h2v2a1 1 0 0 1 -1 1zm28-5h-24.382l1.282-2.553a1 1 0 0 0 .1-.447v-31a5 5 0 0 0 -10 0v31a1 1 0 0 0 .105.447l1.277 2.553h-16.382a3 3 0 0 1 -3-3v-40h54v40a3 3 0 0 1 -3 3z"/><path d="m8 6h2v2h-2z"/><path d="m12 6h2v2h-2z"/><path d="m16 6h2v2h-2z"/><path d="m43 46h2v2h-2z"/><path d="m43 50h2v2h-2z"/><path d="m39 50h2v2h-2z"/><path d="m35 50h2v2h-2z"/><path d="m8 22h10v2h-10z"/><path d="m8 28h10v2h-10z"/><path d="m8 34h10v2h-10z"/><path d="m8 40h10v2h-10z"/></svg>