<svg height="512" viewBox="0 0 64 64" width="512" xmlns="http://www.w3.org/2000/svg"><g id="Interface-2" data-name="Interface"><path d="m56 12h-10v-5a5.006 5.006 0 0 0 -5-5h-20a5.006 5.006 0 0 0 -5 5v6.01h-1.346a3.005 3.005 0 0 0 -2.6 1.5l-5.58 9.67a11.012 11.012 0 0 0 -1.474 5.5v22.32a1 1 0 0 0 -1 1v8a1 1 0 0 0 1 1h14a1 1 0 0 0 1-1v-8a1 1 0 0 0 -1-1v-.724l.851-1.421a4.881 4.881 0 0 0 1.149.145h20a5.006 5.006 0 0 0 5-5v-3h10a3 3 0 0 0 3-3v-24a3 3 0 0 0 -3-3zm-30-8h10v1a1 1 0 0 1 -1 1h-8a1 1 0 0 1 -1-1zm-8 56h-12v-6h12zm-11-8v-22.32a9.006 9.006 0 0 1 1.206-4.5l5.583-9.67a1 1 0 0 1 .865-.5h1.346v12.179l-3.066 5.311 1.732 1 7.5-12.991a2 2 0 0 1 3.468 2l-6.87 11.891a1 1 0 0 0 -.082.819l.65 1.94a12.91 12.91 0 0 1 .668 4.111v.85a13.051 13.051 0 0 1 -1.507 6.067c-.112.215-.233.429-.351.629l-1 1.67a1 1 0 0 0 -.142.514v1zm37-7a3 3 0 0 1 -3 3h-20c-.077 0-.146-.017-.221-.023a15.019 15.019 0 0 0 1.221-5.857v-.85a14.931 14.931 0 0 0 -.771-4.748l-.507-1.512 6.645-11.5a4.013 4.013 0 0 0 .533-2 4 4 0 0 0 -7.466-2l-2.434 4.215v-16.725a3 3 0 0 1 3-3h3v1a3 3 0 0 0 3 3h8a3 3 0 0 0 3-3v-1h3a3 3 0 0 1 3 3v5h-10a3 3 0 0 0 -3 3v24a3 3 0 0 0 3 3h10zm13-6a1 1 0 0 1 -1 1h-22a1 1 0 0 1 -1-1v-19h24zm-24-21v-3a1 1 0 0 1 1-1h22a1 1 0 0 1 1 1v3z"/><path d="m37 31h6a1 1 0 0 0 1-1v-6a1 1 0 0 0 -1-1h-6a1 1 0 0 0 -1 1v6a1 1 0 0 0 1 1zm1-6h4v4h-4z"/><path d="m36 33h18v2h-18z"/><path d="m46 29h8v2h-8z"/><path d="m46 25h8v2h-8z"/></g></svg>