<?xml version="1.0"?>
<svg xmlns="http://www.w3.org/2000/svg" viewBox="0 0 64 64" width="512" height="512"><g id="Service"><path d="M59,8H20V5a1,1,0,0,0-.105-.447l-1-2A1,1,0,0,0,18,2H16a1,1,0,0,0-.895.553l-1,2A1,1,0,0,0,14,5V8.382l-3,1.5-3-1.5V5A1,1,0,0,0,7.9,4.553l-1-2A1,1,0,0,0,6,2H4a1,1,0,0,0-.895.553l-1,2A1,1,0,0,0,2,5v8a1,1,0,0,0,.293.707L6,17.414V46.586L2.293,50.293A1,1,0,0,0,2,51v8a1,1,0,0,0,.1.447l1,2A1,1,0,0,0,4,62H6a1,1,0,0,0,.895-.553l1-2A1,1,0,0,0,8,59V55.618l3-1.5,3,1.5V59a1,1,0,0,0,.105.447l1,2A1,1,0,0,0,16,62h2a1,1,0,0,0,.895-.553l1-2A1,1,0,0,0,20,59V56H59a3,3,0,0,0,3-3V11A3,3,0,0,0,59,8ZM19.707,13.707A1,1,0,0,0,20,13V10H59a1,1,0,0,1,1,1v5H17.414ZM18,58.764,17.382,60h-.764L16,58.764V55a1,1,0,0,0-.553-.9l-4-2a1,1,0,0,0-.894,0l-4,2A1,1,0,0,0,6,55v3.764L5.382,60H4.618L4,58.764v-7.35l3.707-3.707A1,1,0,0,0,8,47V17a1,1,0,0,0-.293-.707L4,12.586V5.236L4.618,4h.764L6,5.236V9a1,1,0,0,0,.553.895l4,2a1,1,0,0,0,.894,0l4-2A1,1,0,0,0,16,9V5.236L16.618,4h.764L18,5.236v7.35l-3.707,3.707A1,1,0,0,0,14,17V47a1,1,0,0,0,.293.707L18,51.414ZM59,54H20V51a1,1,0,0,0-.293-.707L16,46.586V18H60V53A1,1,0,0,1,59,54Z"/><rect x="46" y="12" width="2" height="2"/><rect x="50" y="12" width="2" height="2"/><rect x="54" y="12" width="2" height="2"/><path d="M40.364,29.565,34,35.929l-1.414-1.415a3,3,0,0,0-4.243,4.243l3.536,3.536a3,3,0,0,0,4.242,0l8.485-8.485a3,3,0,0,0-4.242-4.243Zm2.828,2.829-8.485,8.485a1,1,0,0,1-1.414,0l-3.536-3.536a1,1,0,0,1,1.415-1.414l2.121,2.121a1,1,0,0,0,1.414,0l7.071-7.071a1,1,0,1,1,1.414,1.415Z"/><path d="M36,21A15,15,0,1,0,51,36,15.017,15.017,0,0,0,36,21Zm0,28A13,13,0,1,1,49,36,13.015,13.015,0,0,1,36,49Z"/></g></svg>
